<mxfile host="app.diagrams.net" modified="2021-10-15T08:43:34.658Z" agent="5.0 (Macintosh; Intel Mac OS X 10_15_7) AppleWebKit/605.1.15 (KHTML, like Gecko) Version/15.0 Safari/605.1.15" etag="jvJiJJy2e5cdQzIAdaZ-" version="15.5.2" type="github">
  <diagram id="EsC2Hzitvl2C8W4MN_cd" name="Page-1">
    <mxGraphModel dx="910" dy="593" grid="1" gridSize="10" guides="1" tooltips="1" connect="1" arrows="1" fold="1" page="1" pageScale="1" pageWidth="827" pageHeight="1169" math="0" shadow="0">
      <root>
        <mxCell id="0" />
        <mxCell id="1" parent="0" />
        <mxCell id="YzSAeH3SV0ryD27Wd0aZ-29" value="" style="rounded=0;whiteSpace=wrap;html=1;dashed=1;" vertex="1" parent="1">
          <mxGeometry x="650" y="222" width="170" height="260" as="geometry" />
        </mxCell>
        <mxCell id="YzSAeH3SV0ryD27Wd0aZ-17" value="" style="rounded=1;whiteSpace=wrap;html=1;strokeColor=#7EA6E0;fillColor=#FFFFFF;" vertex="1" parent="1">
          <mxGeometry x="667.5" y="262" width="130" height="160" as="geometry" />
        </mxCell>
        <mxCell id="YzSAeH3SV0ryD27Wd0aZ-28" value="" style="rounded=0;whiteSpace=wrap;html=1;dashed=1;" vertex="1" parent="1">
          <mxGeometry x="80" y="150" width="542.5" height="460" as="geometry" />
        </mxCell>
        <mxCell id="YzSAeH3SV0ryD27Wd0aZ-1" value="" style="rounded=1;whiteSpace=wrap;html=1;fontSize=12;fillColor=#FFFFFF;strokeColor=#97D077;" vertex="1" parent="1">
          <mxGeometry x="167" y="270" width="435.5" height="150" as="geometry" />
        </mxCell>
        <mxCell id="YzSAeH3SV0ryD27Wd0aZ-2" value="" style="rounded=1;whiteSpace=wrap;html=1;strokeColor=#97D077;fillColor=#FFFFFF;" vertex="1" parent="1">
          <mxGeometry x="461.5" y="280" width="130" height="130" as="geometry" />
        </mxCell>
        <mxCell id="YzSAeH3SV0ryD27Wd0aZ-3" value="" style="rounded=1;whiteSpace=wrap;html=1;strokeColor=#97D077;fillColor=#FFFFFF;" vertex="1" parent="1">
          <mxGeometry x="170" y="440" width="430" height="70" as="geometry" />
        </mxCell>
        <mxCell id="YzSAeH3SV0ryD27Wd0aZ-4" value="" style="rounded=1;whiteSpace=wrap;html=1;strokeColor=#B9E0A5;fillColor=#FFFFFF;" vertex="1" parent="1">
          <mxGeometry x="319.5" y="280" width="130" height="130" as="geometry" />
        </mxCell>
        <mxCell id="YzSAeH3SV0ryD27Wd0aZ-5" value="" style="rounded=1;whiteSpace=wrap;html=1;strokeColor=#97D077;fillColor=#FFFFFF;" vertex="1" parent="1">
          <mxGeometry x="179.5" y="280" width="130" height="130" as="geometry" />
        </mxCell>
        <mxCell id="YzSAeH3SV0ryD27Wd0aZ-6" value="&lt;span style=&quot;font-size: 12px&quot;&gt;作业启动&lt;/span&gt;" style="rounded=0;whiteSpace=wrap;html=1;fontSize=18;fillColor=#B9E0A5;" vertex="1" parent="1">
          <mxGeometry x="329.5" y="320" width="110" height="30" as="geometry" />
        </mxCell>
        <mxCell id="YzSAeH3SV0ryD27Wd0aZ-7" value="&lt;span style=&quot;font-size: 12px&quot;&gt;展示作业列表&lt;/span&gt;" style="rounded=0;whiteSpace=wrap;html=1;fontSize=18;fillColor=#B9E0A5;" vertex="1" parent="1">
          <mxGeometry x="471.5" y="320" width="110" height="30" as="geometry" />
        </mxCell>
        <mxCell id="YzSAeH3SV0ryD27Wd0aZ-8" value="参数配置" style="rounded=0;whiteSpace=wrap;html=1;fontSize=12;fillColor=#B9E0A5;" vertex="1" parent="1">
          <mxGeometry x="189.5" y="320" width="110" height="30" as="geometry" />
        </mxCell>
        <mxCell id="YzSAeH3SV0ryD27Wd0aZ-9" value="上传配置文件" style="rounded=0;whiteSpace=wrap;html=1;fontSize=12;fillColor=#B9E0A5;" vertex="1" parent="1">
          <mxGeometry x="189.5" y="360" width="110" height="30" as="geometry" />
        </mxCell>
        <mxCell id="YzSAeH3SV0ryD27Wd0aZ-10" value="&lt;b&gt;&lt;font style=&quot;font-size: 14px&quot;&gt;作业提交&lt;/font&gt;&lt;/b&gt;" style="text;html=1;strokeColor=none;fillColor=none;align=center;verticalAlign=middle;whiteSpace=wrap;rounded=0;fontFamily=Helvetica;" vertex="1" parent="1">
          <mxGeometry x="199.5" y="280" width="60" height="30" as="geometry" />
        </mxCell>
        <mxCell id="YzSAeH3SV0ryD27Wd0aZ-11" value="&lt;span style=&quot;font-size: 12px&quot;&gt;作业停止&lt;/span&gt;" style="rounded=0;whiteSpace=wrap;html=1;fontSize=18;fillColor=#B9E0A5;" vertex="1" parent="1">
          <mxGeometry x="329.5" y="360" width="110" height="30" as="geometry" />
        </mxCell>
        <mxCell id="YzSAeH3SV0ryD27Wd0aZ-12" value="&lt;span style=&quot;font-size: 14px&quot;&gt;&lt;b&gt;作业管控&lt;/b&gt;&lt;/span&gt;" style="text;html=1;strokeColor=none;fillColor=none;align=center;verticalAlign=middle;whiteSpace=wrap;rounded=0;fontFamily=Helvetica;" vertex="1" parent="1">
          <mxGeometry x="339.5" y="280" width="60" height="30" as="geometry" />
        </mxCell>
        <mxCell id="YzSAeH3SV0ryD27Wd0aZ-13" value="&lt;span style=&quot;font-size: 12px&quot;&gt;展示作业运行状态&lt;/span&gt;" style="rounded=0;whiteSpace=wrap;html=1;fontSize=18;fillColor=#B9E0A5;" vertex="1" parent="1">
          <mxGeometry x="473" y="360" width="110" height="30" as="geometry" />
        </mxCell>
        <mxCell id="YzSAeH3SV0ryD27Wd0aZ-14" value="&lt;span style=&quot;font-size: 14px&quot;&gt;&lt;b&gt;YARN&lt;/b&gt;&lt;/span&gt;" style="text;html=1;strokeColor=none;fillColor=none;align=center;verticalAlign=middle;whiteSpace=wrap;rounded=0;fontFamily=Helvetica;" vertex="1" parent="1">
          <mxGeometry x="680" y="262" width="60" height="30" as="geometry" />
        </mxCell>
        <mxCell id="YzSAeH3SV0ryD27Wd0aZ-15" value="&lt;font style=&quot;font-size: 14px&quot;&gt;&lt;b&gt;应用层&lt;/b&gt;&lt;/font&gt;" style="text;html=1;strokeColor=none;fillColor=none;align=center;verticalAlign=middle;whiteSpace=wrap;rounded=0;" vertex="1" parent="1">
          <mxGeometry x="87" y="320" width="92.5" height="30" as="geometry" />
        </mxCell>
        <mxCell id="YzSAeH3SV0ryD27Wd0aZ-16" value="&lt;b&gt;&lt;font style=&quot;font-size: 14px&quot;&gt;持久化层&lt;/font&gt;&lt;/b&gt;" style="text;html=1;strokeColor=none;fillColor=none;align=center;verticalAlign=middle;whiteSpace=wrap;rounded=0;" vertex="1" parent="1">
          <mxGeometry x="87" y="545" width="92.5" height="30" as="geometry" />
        </mxCell>
        <mxCell id="YzSAeH3SV0ryD27Wd0aZ-18" value="&lt;b&gt;&lt;font style=&quot;font-size: 14px&quot;&gt;作业展示&lt;/font&gt;&lt;/b&gt;" style="text;html=1;strokeColor=none;fillColor=none;align=center;verticalAlign=middle;whiteSpace=wrap;rounded=0;fontFamily=Helvetica;" vertex="1" parent="1">
          <mxGeometry x="483" y="280" width="60" height="30" as="geometry" />
        </mxCell>
        <mxCell id="YzSAeH3SV0ryD27Wd0aZ-19" value="&lt;b&gt;&lt;font style=&quot;font-size: 18px&quot;&gt;行内系统&lt;/font&gt;&lt;/b&gt;" style="text;html=1;strokeColor=none;fillColor=none;align=center;verticalAlign=middle;whiteSpace=wrap;rounded=0;fontFamily=Helvetica;" vertex="1" parent="1">
          <mxGeometry x="650" y="222" width="80" height="30" as="geometry" />
        </mxCell>
        <mxCell id="YzSAeH3SV0ryD27Wd0aZ-20" value="&lt;span style=&quot;font-size: 12px&quot;&gt;flink作业详情&lt;/span&gt;" style="rounded=0;whiteSpace=wrap;html=1;fontSize=18;fillColor=#7EA6E0;" vertex="1" parent="1">
          <mxGeometry x="677.5" y="292" width="110" height="30" as="geometry" />
        </mxCell>
        <mxCell id="YzSAeH3SV0ryD27Wd0aZ-21" value="&lt;font style=&quot;font-size: 14px&quot;&gt;&lt;b&gt;处理层&lt;/b&gt;&lt;/font&gt;" style="text;html=1;strokeColor=none;fillColor=none;align=center;verticalAlign=middle;whiteSpace=wrap;rounded=0;" vertex="1" parent="1">
          <mxGeometry x="87" y="460" width="92.5" height="30" as="geometry" />
        </mxCell>
        <mxCell id="YzSAeH3SV0ryD27Wd0aZ-22" value="" style="rounded=1;whiteSpace=wrap;html=1;strokeColor=#97D077;fillColor=#FFFFFF;" vertex="1" parent="1">
          <mxGeometry x="167" y="530" width="431" height="60" as="geometry" />
        </mxCell>
        <mxCell id="YzSAeH3SV0ryD27Wd0aZ-23" value="GaussDB数据库" style="rounded=0;whiteSpace=wrap;html=1;fontSize=12;fillColor=#B9E0A5;" vertex="1" parent="1">
          <mxGeometry x="329.5" y="545" width="110" height="30" as="geometry" />
        </mxCell>
        <mxCell id="YzSAeH3SV0ryD27Wd0aZ-24" value="HDFS文件存储" style="rounded=0;whiteSpace=wrap;html=1;fontSize=12;fillColor=#7EA6E0;" vertex="1" parent="1">
          <mxGeometry x="680" y="432" width="110" height="30" as="geometry" />
        </mxCell>
        <mxCell id="YzSAeH3SV0ryD27Wd0aZ-25" value="" style="rounded=1;whiteSpace=wrap;html=1;fontSize=12;fillColor=#FFFFFF;strokeColor=#97D077;" vertex="1" parent="1">
          <mxGeometry x="167" y="190" width="433" height="60" as="geometry" />
        </mxCell>
        <mxCell id="YzSAeH3SV0ryD27Wd0aZ-26" value="webUI" style="rounded=0;whiteSpace=wrap;html=1;fontSize=12;fillColor=#B9E0A5;" vertex="1" parent="1">
          <mxGeometry x="220" y="205" width="340" height="30" as="geometry" />
        </mxCell>
        <mxCell id="YzSAeH3SV0ryD27Wd0aZ-27" value="&lt;font style=&quot;font-size: 14px&quot;&gt;&lt;b&gt;表现层&lt;/b&gt;&lt;/font&gt;" style="text;html=1;strokeColor=none;fillColor=none;align=center;verticalAlign=middle;whiteSpace=wrap;rounded=0;" vertex="1" parent="1">
          <mxGeometry x="87" y="205" width="92.5" height="30" as="geometry" />
        </mxCell>
        <mxCell id="YzSAeH3SV0ryD27Wd0aZ-30" value="" style="endArrow=classic;html=1;rounded=0;entryX=0;entryY=0.5;entryDx=0;entryDy=0;exitX=1.001;exitY=0.438;exitDx=0;exitDy=0;exitPerimeter=0;" edge="1" parent="1" source="YzSAeH3SV0ryD27Wd0aZ-28" target="YzSAeH3SV0ryD27Wd0aZ-29">
          <mxGeometry width="50" height="50" relative="1" as="geometry">
            <mxPoint x="630" y="400" as="sourcePoint" />
            <mxPoint x="452.5" y="660" as="targetPoint" />
          </mxGeometry>
        </mxCell>
        <mxCell id="YzSAeH3SV0ryD27Wd0aZ-31" value="&lt;span style=&quot;font-size: 12px&quot;&gt;flink作业调度&lt;/span&gt;" style="rounded=0;whiteSpace=wrap;html=1;fontSize=18;fillColor=#7EA6E0;" vertex="1" parent="1">
          <mxGeometry x="677.5" y="332" width="110" height="30" as="geometry" />
        </mxCell>
        <mxCell id="YzSAeH3SV0ryD27Wd0aZ-32" value="&lt;span style=&quot;font-size: 12px&quot;&gt;flink作业执行&lt;/span&gt;" style="rounded=0;whiteSpace=wrap;html=1;fontSize=18;fillColor=#7EA6E0;" vertex="1" parent="1">
          <mxGeometry x="677.5" y="372" width="110" height="30" as="geometry" />
        </mxCell>
        <mxCell id="YzSAeH3SV0ryD27Wd0aZ-33" value="数据库交互" style="rounded=0;whiteSpace=wrap;html=1;fontSize=12;fillColor=#B9E0A5;" vertex="1" parent="1">
          <mxGeometry x="189.5" y="460" width="110" height="30" as="geometry" />
        </mxCell>
        <mxCell id="YzSAeH3SV0ryD27Wd0aZ-34" value="文件读取" style="rounded=0;whiteSpace=wrap;html=1;fontSize=12;fillColor=#B9E0A5;" vertex="1" parent="1">
          <mxGeometry x="330" y="460" width="110" height="30" as="geometry" />
        </mxCell>
        <mxCell id="YzSAeH3SV0ryD27Wd0aZ-36" value="&lt;b&gt;&lt;font style=&quot;font-size: 18px&quot;&gt;Flink作业管控系统&lt;/font&gt;&lt;/b&gt;" style="text;html=1;strokeColor=none;fillColor=none;align=center;verticalAlign=middle;whiteSpace=wrap;rounded=0;fontFamily=Helvetica;" vertex="1" parent="1">
          <mxGeometry x="80" y="150" width="159" height="30" as="geometry" />
        </mxCell>
      </root>
    </mxGraphModel>
  </diagram>
</mxfile>
